<svg width="60" height="60" viewBox="0 0 60 60" fill="none" xmlns="http://www.w3.org/2000/svg">
<rect width="60" height="60" rx="30" fill="white"/>
<path d="M39.3677 32.9391V23.8677C39.3677 18.7021 35.1655 14.5 30 14.5C24.8345 14.5 20.6323 18.7021 20.6323 23.8677V32.9397C18.967 33.4224 17.7383 34.9544 17.7383 36.8374C17.7383 39.0386 19.5293 40.8296 21.731 40.8296H25.377V40.877C25.377 43.4263 27.4507 45.5 30 45.5C32.5493 45.5 34.6231 43.4263 34.6231 40.8769V40.8296H38.2691C40.4707 40.8296 42.2617 39.0386 42.2617 36.7583C42.2617 34.9406 41.033 33.4198 39.3677 32.9391ZM23.6323 23.8677C23.6323 20.3564 26.4888 17.5 30 17.5C33.5112 17.5 36.3677 20.3564 36.3677 23.8677V32.7661H23.6323V23.8677ZM31.6231 40.8769C31.6231 41.772 30.895 42.5 30 42.5C29.105 42.5 28.377 41.772 28.377 40.8769V40.8296H31.623V40.8769H31.6231ZM38.269 37.8296H21.731C21.1836 37.8296 20.7383 37.3843 20.7383 36.7583C20.7383 36.2114 21.1836 35.7661 21.731 35.7661H38.2691C38.8164 35.7661 39.2617 36.2114 39.2617 36.8374C39.2617 37.3843 38.8164 37.8296 38.269 37.8296Z" fill="#303030"/>
<circle cx="46" cy="14" r="4" fill="#303030"/>
</svg>
