<svg width="60" height="60" viewBox="0 0 60 60" fill="none" xmlns="http://www.w3.org/2000/svg">
<rect width="60" height="60" rx="30" fill="white"/>
<path d="M26.2632 16.6666L25.4168 20.4661C24.9355 20.6977 24.4753 20.9645 24.034 21.2656L20.3205 20.0963L16.5835 26.5703L19.3986 29.1484C19.2886 29.9648 19.3384 30.3672 19.3986 30.8515L16.5835 33.4296L20.3205 39.9036L24.034 38.7343C24.4753 39.0354 24.9355 39.3022 25.4168 39.5338L26.2632 43.3333H33.7371L34.5835 39.5338C35.0649 39.3022 35.525 39.0354 35.9663 38.7343L39.6798 39.9036L43.4168 33.4296L40.6017 30.8515C40.6247 30.5681 40.6665 30.2845 40.6668 30C40.6679 29.7068 40.6217 29.4107 40.6017 29.1484L43.4168 26.5703L39.6798 20.0963L35.9663 21.2656C35.525 20.9645 35.0649 20.6977 34.5835 20.4661L33.7371 16.6666H26.2632ZM28.4038 19.3333H31.5965L32.2554 22.2916L32.9168 22.552C33.6651 22.8451 34.3645 23.2484 34.9923 23.75L35.5496 24.1927L38.4403 23.2838L40.0366 26.0494L37.8022 28.0989L37.909 28.802C38.0347 29.5796 38.0103 30.4745 37.909 31.1979L37.8022 31.901L40.0366 33.9505L38.4403 36.7161L35.5496 35.8073L34.9923 36.25C34.3645 36.7515 33.6651 37.1548 32.9168 37.4479L32.2554 37.7083L31.5965 40.6666H28.4038L27.745 37.7083L27.0835 37.4479C26.3353 37.1548 25.6358 36.7515 25.008 36.25L24.4507 35.8073L21.5601 36.7161L19.9637 33.9505L22.1981 31.901L22.0913 31.1979C21.9611 30.4046 21.9811 29.4967 22.0913 28.802L22.1981 28.0989L19.9637 26.0494L21.5601 23.2838L24.4507 24.1927L25.008 23.75C25.6358 23.2484 26.3353 22.8451 27.0835 22.552L27.745 22.2916L28.4038 19.3333ZM30.0002 24.6666C27.0704 24.6666 24.6668 27.0702 24.6668 30C24.6668 32.9297 27.0704 35.3333 30.0002 35.3333C32.9299 35.3333 35.3335 32.9297 35.3335 30C35.3335 27.0702 32.9299 24.6666 30.0002 24.6666ZM30.0002 27.3333C31.4887 27.3333 32.6668 28.5114 32.6668 30C32.6668 31.4885 31.4887 32.6666 30.0002 32.6666C28.5116 32.6666 27.3335 31.4885 27.3335 30C27.3335 28.5114 28.5116 27.3333 30.0002 27.3333Z" fill="#303030"/>
</svg>
